<svg xmlns="http://www.w3.org/2000/svg"
  xmlns:xlink="http://www.w3.org/1999/xlink" version="1.1" x="0" y="0" viewBox="0 0 48 48" style="enable-background:new 0 0 512 512;width: 16px;height: 16px;color: green;" xml:space="preserve" class="">
  <g>
    <path d="M24 47.5C11 47.5.5 37 .5 24S11 .5 24 .5 47.5 11 47.5 24 37 47.5 24 47.5zm0-45C12.1 2.5 2.5 12.1 2.5 24S12.1 45.5 24 45.5 45.5 35.9 45.5 24 35.9 2.5 24 2.5z" fill="currentColor" opacity="1" data-original="#000000" class=""/>
    <path d="M16.8 34.3h-.2c-.4-.1-.7-.5-.7-.9-.5-4.7-4.9-12.1-4.9-12.2-.3-.5-.1-1.1.3-1.4.5-.3 1.1-.1 1.4.4.2.3 3.4 5.8 4.7 10.6 3.2-4.4 11.6-14.9 18.5-17 .5-.2 1.1.1 1.2.7.2.5-.1 1.1-.7 1.3-7.9 2.4-18.7 18-18.8 18.2-.1.1-.4.3-.8.3z" fill="currentColor" opacity="1" data-original="#000000" class=""/>
  </g>
</svg>