<svg xmlns="http://www.w3.org/2000/svg"
  xmlns:xlink="http://www.w3.org/1999/xlink" version="1.1" x="0" y="0" viewBox="0 0 100 100" style="enable-background:new 0 0 512 512;color: red;width: 16px;height: 16px;" xml:space="preserve" class="">
  <g>
    <path d="M50 96.978c-12.036 0-24.071-4.582-33.234-13.744-18.326-18.325-18.326-48.143 0-66.468 18.325-18.325 48.143-18.325 66.468 0 18.326 18.325 18.326 48.143 0 66.468C74.07 92.396 62.036 96.978 50 96.978zM50 7c-11.486 0-22.284 4.473-30.406 12.594C11.473 27.716 7 38.514 7 50s4.473 22.284 12.594 30.406C27.716 88.527 38.514 93 50 93s22.284-4.473 30.406-12.594C88.527 72.284 93 61.486 93 50s-4.473-22.284-12.594-30.406C72.284 11.473 61.486 7 50 7z" fill="currentColor" opacity="1" data-original="#000000" class=""/>
    <path d="M31.66 70.34a2 2 0 0 1-1.414-3.414l36.68-36.68a2 2 0 1 1 2.827 2.829L33.075 69.753c-.39.391-.903.586-1.414.586z" fill="currentColor" opacity="1" data-original="#000000" class=""/>
    <path d="M68.34 70.34a1.993 1.993 0 0 1-1.415-.587L30.247 33.075a2 2 0 1 1 2.828-2.828l36.678 36.678a2 2 0 0 1-1.414 3.414z" fill="currentColor" opacity="1" data-original="#000000" class=""/>
  </g>
</svg>